<?xml version="1.0" encoding="UTF-8" standalone="no"?>
<svg
   version="1.1"
   width="256"
   height="256"
   viewBox="0 0 256 256"
   xml:space="preserve"
   id="svg6"
   xmlns="http://www.w3.org/2000/svg"
   xmlns:svg="http://www.w3.org/2000/svg">

<defs
   id="defs1" />
<g
   style="display:inline;fill:#7f7f7f;fill-opacity:0.9;fill-rule:nonzero;stroke:none;stroke-width:0;stroke-linecap:butt;stroke-linejoin:miter;stroke-miterlimit:10;stroke-dasharray:none"
   transform="matrix(2.81,0,0,2.81,1.55,1.55)"
   id="g6-5">
	
	
	<path
   id="path3-3"
   style="opacity:1;fill:#7f7f7f;fill-opacity:0.9;fill-rule:nonzero;stroke:none;stroke-width:1;stroke-linecap:butt;stroke-linejoin:miter;stroke-miterlimit:10;stroke-dasharray:none"
   d="M 57.197,14.112 H 32.803 c -1.104,0 -2,-0.896 -2,-2 C 30.803,5.433 36.236,0 42.915,0 h 4.17 c 6.679,0 12.112,5.433 12.112,12.112 0,1.104 -0.895,2 -2,2 z m 19.517,11.37 H 13.286 c -1.104,0 -2,-0.896 -2,-2 v -3.961 c 0,-5.188 4.221,-9.41 9.41,-9.41 h 48.609 c 5.188,0 9.409,4.221 9.409,9.41 v 3.961 c 0,1.105 -0.896,2 -2,2 z M 67.433,90 H 22.567 C 21.508,90 20.632,89.174 20.57,88.117 L 16.792,23.599 c -0.032,-0.55 0.164,-1.088 0.542,-1.489 0.378,-0.401 0.904,-0.628 1.455,-0.628 h 52.42 c 0.551,0 1.077,0.227 1.455,0.628 0.378,0.4 0.573,0.939 0.542,1.489 L 69.43,88.117 C 69.367,89.174 68.492,90 67.433,90 Z" />
	
	
	
</g><g
   style="display:inline;opacity:1;fill:#000000;fill-opacity:1;fill-rule:nonzero;stroke:none;stroke-width:0;stroke-linecap:butt;stroke-linejoin:miter;stroke-miterlimit:10;stroke-dasharray:none"
   transform="matrix(2.81,0,0,2.81,1.4065934,1.4065934)"
   id="g6">
	<path
   d="M 67.433,90 H 22.567 C 21.508,90 20.632,89.174 20.57,88.117 L 16.792,23.599 c -0.032,-0.55 0.164,-1.088 0.542,-1.489 0.378,-0.401 0.904,-0.628 1.455,-0.628 h 52.42 c 0.551,0 1.077,0.227 1.455,0.628 0.378,0.4 0.573,0.939 0.542,1.489 L 69.43,88.117 C 69.367,89.174 68.492,90 67.433,90 Z M 24.454,86 H 65.546 L 69.09,25.482 H 20.91 Z"
   style="opacity:1;fill:#000000;fill-opacity:1;fill-rule:nonzero;stroke:none;stroke-width:1;stroke-linecap:butt;stroke-linejoin:miter;stroke-miterlimit:10;stroke-dasharray:none"
   stroke-linecap="round"
   id="path1" />
	<path
   d="M 76.714,25.482 H 13.286 c -1.104,0 -2,-0.896 -2,-2 v -3.961 c 0,-5.188 4.221,-9.41 9.41,-9.41 h 48.609 c 5.188,0 9.409,4.221 9.409,9.41 v 3.961 c 0,1.105 -0.896,2 -2,2 z m -61.428,-4 h 59.428 v -1.961 c 0,-2.983 -2.427,-5.41 -5.409,-5.41 H 20.696 c -2.983,0 -5.41,2.427 -5.41,5.41 z"
   style="opacity:1;fill:#000000;fill-opacity:1;fill-rule:nonzero;stroke:none;stroke-width:1;stroke-linecap:butt;stroke-linejoin:miter;stroke-miterlimit:10;stroke-dasharray:none"
   stroke-linecap="round"
   id="path2" />
	<path
   d="M 57.197,14.112 H 32.803 c -1.104,0 -2,-0.896 -2,-2 C 30.803,5.433 36.236,0 42.915,0 h 4.17 c 6.679,0 12.112,5.433 12.112,12.112 0,1.104 -0.895,2 -2,2 z m -22.145,-4 H 54.948 C 54.055,6.603 50.868,4 47.085,4 h -4.17 c -3.784,0 -6.97,2.603 -7.863,6.112 z"
   style="opacity:1;fill:#000000;fill-opacity:1;fill-rule:nonzero;stroke:none;stroke-width:1;stroke-linecap:butt;stroke-linejoin:miter;stroke-miterlimit:10;stroke-dasharray:none"
   stroke-linecap="round"
   id="path3" />
	<path
   d="m 55.865,75.688 c -0.039,0 -0.079,-0.001 -0.119,-0.003 -1.103,-0.065 -1.944,-1.012 -1.879,-2.114 l 2.196,-37.53 c 0.064,-1.103 0.997,-1.948 2.114,-1.88 1.103,0.064 1.944,1.011 1.879,2.113 L 57.86,73.805 c -0.062,1.062 -0.944,1.883 -1.995,1.883 z"
   style="opacity:1;fill:#000000;fill-opacity:1;fill-rule:nonzero;stroke:none;stroke-width:1;stroke-linecap:butt;stroke-linejoin:miter;stroke-miterlimit:10;stroke-dasharray:none"
   stroke-linecap="round"
   id="path4" />
	<path
   d="m 34.135,75.688 c -1.051,0 -1.933,-0.82 -1.995,-1.883 L 29.942,36.274 c -0.064,-1.103 0.777,-2.049 1.88,-2.113 1.095,-0.072 2.049,0.777 2.113,1.88 l 2.198,37.53 c 0.064,1.103 -0.777,2.049 -1.88,2.113 -0.039,0.003 -0.079,0.004 -0.118,0.004 z"
   style="opacity:1;fill:#000000;fill-opacity:1;fill-rule:nonzero;stroke:none;stroke-width:1;stroke-linecap:butt;stroke-linejoin:miter;stroke-miterlimit:10;stroke-dasharray:none"
   stroke-linecap="round"
   id="path5" />
	<path
   d="m 45,75.688 c -1.104,0 -2,-0.896 -2,-2 V 36.157 c 0,-1.104 0.896,-2 2,-2 1.104,0 2,0.896 2,2 v 37.531 c 0,1.104 -0.896,2 -2,2 z"
   style="opacity:1;fill:#000000;fill-opacity:1;fill-rule:nonzero;stroke:none;stroke-width:1;stroke-linecap:butt;stroke-linejoin:miter;stroke-miterlimit:10;stroke-dasharray:none"
   stroke-linecap="round"
   id="path6" />
</g>
</svg>
