<?xml version="1.0" encoding="UTF-8" standalone="no"?>
<svg
   version="1.1"
   width="256"
   height="256"
   viewBox="0 0 256 256"
   xml:space="preserve"
   id="svg5"
   xmlns="http://www.w3.org/2000/svg"
   xmlns:svg="http://www.w3.org/2000/svg">

<defs
   id="defs1" />
<g
   style="opacity:1;fill:none;fill-rule:nonzero;stroke:none;stroke-width:0;stroke-linecap:butt;stroke-linejoin:miter;stroke-miterlimit:10;stroke-dasharray:none"
   transform="matrix(2.81,0,0,2.81,1.4065934,1.4065934)"
   id="g5">
	
	
	
	<g
   id="g6"
   transform="matrix(1.5315972,0,0,1.5315972,-50.529057,-23.870841)"><rect
     x="35.810001"
     y="24.33"
     rx="0"
     ry="0"
     width="53.189999"
     height="41.330002"
     style="opacity:1;fill:#7f7f7f;fill-opacity:0.9;fill-rule:nonzero;stroke:none;stroke-width:1;stroke-linecap:butt;stroke-linejoin:miter;stroke-miterlimit:10;stroke-dasharray:none"
     id="rect1" /><path
     d="M 89,66.667 H 35.811 c -0.552,0 -1,-0.447 -1,-1 V 24.333 c 0,-0.552 0.448,-1 1,-1 H 89 c 0.553,0 1,0.448 1,1 v 41.334 c 0,0.553 -0.447,1 -1,1 z m -52.189,-2 H 88 V 25.333 H 36.811 Z"
     style="opacity:1;fill:#000000;fill-rule:nonzero;stroke:none;stroke-width:1;stroke-linecap:butt;stroke-linejoin:miter;stroke-miterlimit:10;stroke-dasharray:none"
     stroke-linecap="round"
     id="path1" /><polygon
     points="53.14,39.01 53.14,24.33 71.67,24.33 71.67,39.01 62.41,36.11 "
     style="opacity:1;fill:#7f7f7f;fill-opacity:0.9;fill-rule:nonzero;stroke:none;stroke-width:1;stroke-linecap:butt;stroke-linejoin:miter;stroke-miterlimit:10;stroke-dasharray:none"
     id="polygon1" /><path
     d="m 71.673,40.014 c -0.101,0 -0.201,-0.015 -0.299,-0.046 l -8.969,-2.809 -8.969,2.809 c -0.302,0.096 -0.634,0.041 -0.891,-0.148 -0.257,-0.188 -0.408,-0.487 -0.408,-0.806 V 24.333 c 0,-0.552 0.447,-1 1,-1 h 18.535 c 0.553,0 1,0.448 1,1 v 14.681 c 0,0.318 -0.151,0.618 -0.408,0.806 -0.173,0.127 -0.381,0.194 -0.591,0.194 z m -9.268,-4.903 c 0.101,0 0.201,0.015 0.299,0.046 l 7.969,2.496 V 25.333 H 54.138 v 12.319 l 7.969,-2.496 c 0.097,-0.03 0.198,-0.045 0.298,-0.045 z"
     style="opacity:1;fill:#000000;fill-rule:nonzero;stroke:none;stroke-width:1;stroke-linecap:butt;stroke-linejoin:miter;stroke-miterlimit:10;stroke-dasharray:none"
     stroke-linecap="round"
     id="path2" /></g><path
   d="M 79.007531,70.136913 H 46.377745 c -0.998705,0 -1.809248,-0.808734 -1.809248,-1.809248 V 42.446373 c 0,-1.000514 0.810543,-1.809248 1.809248,-1.809248 h 32.629786 c 1.000514,0 1.809248,0.808734 1.809248,1.809248 v 25.881292 c 0,1.000514 -0.808734,1.809248 -1.809248,1.809248 z M 48.186993,66.518417 h 29.01129 V 44.255621 h -29.01129 z"
   style="fill:#000000;fill-rule:nonzero;stroke:none;stroke-width:1.80925;stroke-linecap:butt;stroke-linejoin:miter;stroke-miterlimit:10;stroke-dasharray:none"
   stroke-linecap="round"
   id="path2-7" /><g
   id="g9"
   style="fill:none;fill-rule:nonzero;stroke:none;stroke-width:0;stroke-linecap:butt;stroke-linejoin:miter;stroke-miterlimit:10;stroke-dasharray:none"
   transform="matrix(1.7102677,0,0,1.7102677,-3.5360269,-48.671872)"><path
     d="m 16.496,63.036 c -3.912,0 -7.094,-3.183 -7.094,-7.095 v -2.003 c 0,-0.553 0.448,-1 1,-1 H 22.59 c 0.552,0 1,0.447 1,1 v 2.003 c 0,3.913 -3.182,7.095 -7.094,7.095 z m -5.095,-8.098 v 1.003 c 0,2.81 2.285,5.095 5.094,5.095 2.809,0 5.095,-2.285 5.095,-5.095 v -1.003 z"
     style="opacity:1;fill:#000000;fill-rule:nonzero;stroke:none;stroke-width:1;stroke-linecap:butt;stroke-linejoin:miter;stroke-miterlimit:10;stroke-dasharray:none"
     stroke-linecap="round"
     id="path5" /><path
     d="m 16.496,69.243 c -0.552,0 -1,-0.447 -1,-1 v -6.207 c 0,-0.553 0.448,-1 1,-1 0.552,0 1,0.447 1,1 v 6.207 c 0,0.553 -0.448,1 -1,1 z"
     style="opacity:1;fill:#000000;fill-rule:nonzero;stroke:none;stroke-width:1;stroke-linecap:butt;stroke-linejoin:miter;stroke-miterlimit:10;stroke-dasharray:none"
     stroke-linecap="round"
     id="path6" /><path
     d="m 20.409,69.243 h -7.827 c -0.552,0 -1,-0.447 -1,-1 0,-0.553 0.448,-1 1,-1 h 7.827 c 0.552,0 1,0.447 1,1 0,0.553 -0.448,1 -1,1 z"
     style="opacity:1;fill:#000000;fill-rule:nonzero;stroke:none;stroke-width:1;stroke-linecap:butt;stroke-linejoin:miter;stroke-miterlimit:10;stroke-dasharray:none"
     stroke-linecap="round"
     id="path7" /></g>
	
	
	
</g>
</svg>
